<svg aria-hidden="true" style="width: 0; height: 0; position: absolute; overflow: hidden" version="1.1" xmlns="http://www.w3.org/2000/svg" xmlns:xlink="http://www.w3.org/1999/xlink">
<defs>
<symbol id="icon-alert-circle" viewBox="0 0 24 24">
<path d="M23 12c0-3.037-1.232-5.789-3.222-7.778s-4.741-3.222-7.778-3.222-5.789 1.232-7.778 3.222-3.222 4.741-3.222 7.778 1.232 5.789 3.222 7.778 4.741 3.222 7.778 3.222 5.789-1.232 7.778-3.222 3.222-4.741 3.222-7.778zM21 12c0 2.486-1.006 4.734-2.636 6.364s-3.878 2.636-6.364 2.636-4.734-1.006-6.364-2.636-2.636-3.878-2.636-6.364 1.006-4.734 2.636-6.364 3.878-2.636 6.364-2.636 4.734 1.006 6.364 2.636 2.636 3.878 2.636 6.364zM11 8v4c0 0.552 0.448 1 1 1s1-0.448 1-1v-4c0-0.552-0.448-1-1-1s-1 0.448-1 1zM12 17c0.552 0 1-0.448 1-1s-0.448-1-1-1-1 0.448-1 1 0.448 1 1 1z"></path>
</symbol>
<symbol id="icon-alert-triangle" viewBox="0 0 24 24">
<path d="M11.148 4.374c0.073-0.123 0.185-0.242 0.334-0.332 0.236-0.143 0.506-0.178 0.756-0.116s0.474 0.216 0.614 0.448l8.466 14.133c0.070 0.12 0.119 0.268 0.128 0.434-0.015 0.368-0.119 0.591-0.283 0.759-0.18 0.184-0.427 0.298-0.693 0.301l-16.937-0.001c-0.152-0.001-0.321-0.041-0.481-0.134-0.239-0.138-0.399-0.359-0.466-0.607s-0.038-0.519 0.092-0.745zM9.432 3.346l-8.47 14.14c-0.422 0.731-0.506 1.55-0.308 2.29s0.68 1.408 1.398 1.822c0.464 0.268 0.976 0.4 1.475 0.402h16.943c0.839-0.009 1.587-0.354 2.123-0.902s0.864-1.303 0.855-2.131c-0.006-0.536-0.153-1.044-0.406-1.474l-8.474-14.147c-0.432-0.713-1.11-1.181-1.854-1.363s-1.561-0.081-2.269 0.349c-0.429 0.26-0.775 0.615-1.012 1.014zM11 9v4c0 0.552 0.448 1 1 1s1-0.448 1-1v-4c0-0.552-0.448-1-1-1s-1 0.448-1 1zM12 18c0.552 0 1-0.448 1-1s-0.448-1-1-1-1 0.448-1 1 0.448 1 1 1z"></path>
</symbol>
<symbol id="icon-arrow-left" viewBox="0 0 24 24">
<path d="M12.707 18.293l-5.293-5.293h11.586c0.552 0 1-0.448 1-1s-0.448-1-1-1h-11.586l5.293-5.293c0.391-0.391 0.391-1.024 0-1.414s-1.024-0.391-1.414 0l-7 7c-0.096 0.096-0.168 0.206-0.217 0.324-0.051 0.122-0.076 0.253-0.076 0.383 0 0.256 0.098 0.512 0.293 0.707l7 7c0.391 0.391 1.024 0.391 1.414 0s0.391-1.024 0-1.414z"></path>
</symbol>
<symbol id="icon-arrow-right" viewBox="0 0 24 24">
<path d="M11.293 5.707l5.293 5.293h-11.586c-0.552 0-1 0.448-1 1s0.448 1 1 1h11.586l-5.293 5.293c-0.391 0.391-0.391 1.024 0 1.414s1.024 0.391 1.414 0l7-7c0.092-0.092 0.166-0.202 0.217-0.324 0.101-0.245 0.101-0.521 0-0.766-0.049-0.118-0.121-0.228-0.217-0.324l-7-7c-0.391-0.391-1.024-0.391-1.414 0s-0.391 1.024 0 1.414z"></path>
</symbol>
<symbol id="icon-bookmark" viewBox="0 0 24 24">
<path d="M18.419 21.814c0.161 0.116 0.363 0.186 0.581 0.186 0.552 0 1-0.448 1-1v-16c0-0.828-0.337-1.58-0.879-2.121s-1.293-0.879-2.121-0.879h-10c-0.828 0-1.58 0.337-2.121 0.879s-0.879 1.293-0.879 2.121v16c-0.001 0.199 0.060 0.404 0.186 0.581 0.321 0.449 0.946 0.554 1.395 0.232l6.419-4.584zM18 19.057l-5.419-3.871c-0.355-0.254-0.819-0.242-1.162 0l-5.419 3.871v-14.057c0-0.276 0.111-0.525 0.293-0.707s0.431-0.293 0.707-0.293h10c0.276 0 0.525 0.111 0.707 0.293s0.293 0.431 0.293 0.707z"></path>
</symbol>

<symbol id="icon-bookmark-fill" viewBox="0 0 24 24">
<polygon points="18.419 21.814, 19.000 22.000, 20.000 21.000, 20.000 5.000, 19.121 2.879, 17.000 2.000, 7.000 2.000, 4.879 2.879, 4.000 5.000, 4.000 21.000, 4.186 21.581, 5.581 21.813, 12.000 17.229"></polygon>
</symbol>

<symbol id="icon-check" viewBox="0 0 24 24">
<path d="M19.293 5.293l-10.293 10.293-4.293-4.293c-0.391-0.391-1.024-0.391-1.414 0s-0.391 1.024 0 1.414l5 5c0.391 0.391 1.024 0.391 1.414 0l11-11c0.391-0.391 0.391-1.024 0-1.414s-1.024-0.391-1.414 0z"></path>
</symbol>
<symbol id="icon-clock" viewBox="0 0 24 24">
<path d="M23 12c0-3.037-1.232-5.789-3.222-7.778s-4.741-3.222-7.778-3.222-5.789 1.232-7.778 3.222-3.222 4.741-3.222 7.778 1.232 5.789 3.222 7.778 4.741 3.222 7.778 3.222 5.789-1.232 7.778-3.222 3.222-4.741 3.222-7.778zM21 12c0 2.486-1.006 4.734-2.636 6.364s-3.878 2.636-6.364 2.636-4.734-1.006-6.364-2.636-2.636-3.878-2.636-6.364 1.006-4.734 2.636-6.364 3.878-2.636 6.364-2.636 4.734 1.006 6.364 2.636 2.636 3.878 2.636 6.364zM11 6v6c0 0.389 0.222 0.727 0.553 0.894l4 2c0.494 0.247 1.095 0.047 1.342-0.447s0.047-1.095-0.447-1.342l-3.448-1.723v-5.382c0-0.552-0.448-1-1-1s-1 0.448-1 1z"></path>
</symbol>
<symbol id="icon-edit" viewBox="0 0 24 24">
<path d="M11 3h-7c-0.828 0-1.58 0.337-2.121 0.879s-0.879 1.293-0.879 2.121v14c0 0.828 0.337 1.58 0.879 2.121s1.293 0.879 2.121 0.879h14c0.828 0 1.58-0.337 2.121-0.879s0.879-1.293 0.879-2.121v-7c0-0.552-0.448-1-1-1s-1 0.448-1 1v7c0 0.276-0.111 0.525-0.293 0.707s-0.431 0.293-0.707 0.293h-14c-0.276 0-0.525-0.111-0.707-0.293s-0.293-0.431-0.293-0.707v-14c0-0.276 0.111-0.525 0.293-0.707s0.431-0.293 0.707-0.293h7c0.552 0 1-0.448 1-1s-0.448-1-1-1zM17.793 1.793l-9.5 9.5c-0.122 0.121-0.217 0.28-0.263 0.465l-1 4c-0.039 0.15-0.042 0.318 0 0.485 0.134 0.536 0.677 0.862 1.213 0.728l4-1c0.167-0.041 0.33-0.129 0.465-0.263l9.5-9.5c0.609-0.609 0.914-1.41 0.914-2.207s-0.305-1.598-0.914-2.207-1.411-0.915-2.208-0.915-1.598 0.305-2.207 0.914zM19.207 3.207c0.219-0.219 0.504-0.328 0.793-0.328s0.574 0.109 0.793 0.328 0.328 0.504 0.328 0.793-0.109 0.574-0.328 0.793l-9.304 9.304-2.114 0.529 0.529-2.114z"></path>
</symbol>
<symbol id="icon-loader" viewBox="0 0 24 24">
<path d="M11 2v4c0 0.552 0.448 1 1 1s1-0.448 1-1v-4c0-0.552-0.448-1-1-1s-1 0.448-1 1zM11 18v4c0 0.552 0.448 1 1 1s1-0.448 1-1v-4c0-0.552-0.448-1-1-1s-1 0.448-1 1zM4.223 5.637l2.83 2.83c0.391 0.391 1.024 0.391 1.414 0s0.391-1.024 0-1.414l-2.83-2.83c-0.391-0.391-1.024-0.391-1.414 0s-0.391 1.024 0 1.414zM15.533 16.947l2.83 2.83c0.391 0.391 1.024 0.391 1.414 0s0.391-1.024 0-1.414l-2.83-2.83c-0.391-0.391-1.024-0.391-1.414 0s-0.391 1.024 0 1.414zM2 13h4c0.552 0 1-0.448 1-1s-0.448-1-1-1h-4c-0.552 0-1 0.448-1 1s0.448 1 1 1zM18 13h4c0.552 0 1-0.448 1-1s-0.448-1-1-1h-4c-0.552 0-1 0.448-1 1s0.448 1 1 1zM5.637 19.777l2.83-2.83c0.391-0.391 0.391-1.024 0-1.414s-1.024-0.391-1.414 0l-2.83 2.83c-0.391 0.391-0.391 1.024 0 1.414s1.024 0.391 1.414 0zM16.947 8.467l2.83-2.83c0.391-0.391 0.391-1.024 0-1.414s-1.024-0.391-1.414 0l-2.83 2.83c-0.391 0.391-0.391 1.024 0 1.414s1.024 0.391 1.414 0z"></path>
</symbol>
<symbol id="icon-minus-circle" viewBox="0 0 24 24">
<path d="M23 12c0-3.037-1.232-5.789-3.222-7.778s-4.741-3.222-7.778-3.222-5.789 1.232-7.778 3.222-3.222 4.741-3.222 7.778 1.232 5.789 3.222 7.778 4.741 3.222 7.778 3.222 5.789-1.232 7.778-3.222 3.222-4.741 3.222-7.778zM21 12c0 2.486-1.006 4.734-2.636 6.364s-3.878 2.636-6.364 2.636-4.734-1.006-6.364-2.636-2.636-3.878-2.636-6.364 1.006-4.734 2.636-6.364 3.878-2.636 6.364-2.636 4.734 1.006 6.364 2.636 2.636 3.878 2.636 6.364zM8 13h8c0.552 0 1-0.448 1-1s-0.448-1-1-1h-8c-0.552 0-1 0.448-1 1s0.448 1 1 1z"></path>
</symbol>
<symbol id="icon-plus-circle" viewBox="0 0 24 24">
<path d="M23 12c0-3.037-1.232-5.789-3.222-7.778s-4.741-3.222-7.778-3.222-5.789 1.232-7.778 3.222-3.222 4.741-3.222 7.778 1.232 5.789 3.222 7.778 4.741 3.222 7.778 3.222 5.789-1.232 7.778-3.222 3.222-4.741 3.222-7.778zM21 12c0 2.486-1.006 4.734-2.636 6.364s-3.878 2.636-6.364 2.636-4.734-1.006-6.364-2.636-2.636-3.878-2.636-6.364 1.006-4.734 2.636-6.364 3.878-2.636 6.364-2.636 4.734 1.006 6.364 2.636 2.636 3.878 2.636 6.364zM8 13h3v3c0 0.552 0.448 1 1 1s1-0.448 1-1v-3h3c0.552 0 1-0.448 1-1s-0.448-1-1-1h-3v-3c0-0.552-0.448-1-1-1s-1 0.448-1 1v3h-3c-0.552 0-1 0.448-1 1s0.448 1 1 1z"></path>
</symbol>
<symbol id="icon-search" viewBox="0 0 24 24">
<path d="M16.041 15.856c-0.034 0.026-0.067 0.055-0.099 0.087s-0.060 0.064-0.087 0.099c-1.258 1.213-2.969 1.958-4.855 1.958-1.933 0-3.682-0.782-4.95-2.050s-2.050-3.017-2.050-4.95 0.782-3.682 2.050-4.95 3.017-2.050 4.95-2.050 3.682 0.782 4.95 2.050 2.050 3.017 2.050 4.95c0 1.886-0.745 3.597-1.959 4.856zM21.707 20.293l-3.675-3.675c1.231-1.54 1.968-3.493 1.968-5.618 0-2.485-1.008-4.736-2.636-6.364s-3.879-2.636-6.364-2.636-4.736 1.008-6.364 2.636-2.636 3.879-2.636 6.364 1.008 4.736 2.636 6.364 3.879 2.636 6.364 2.636c2.125 0 4.078-0.737 5.618-1.968l3.675 3.675c0.391 0.391 1.024 0.391 1.414 0s0.391-1.024 0-1.414z"></path>
</symbol>
<symbol id="icon-send" viewBox="0 0 24 24">
<path d="M22.963 2.269c0.043-0.151 0.050-0.314 0.015-0.476-0.024-0.113-0.068-0.224-0.131-0.325-0.064-0.102-0.145-0.19-0.238-0.262-0.117-0.090-0.249-0.15-0.386-0.181s-0.282-0.034-0.426-0.004c-0.042 0.009-0.085 0.021-0.126 0.035l-0.021 0.007-19.98 6.993c-0.252 0.088-0.467 0.276-0.584 0.538-0.224 0.505 0.003 1.096 0.508 1.32l8.649 3.844 3.844 8.649c0.108 0.243 0.313 0.443 0.583 0.538 0.521 0.182 1.092-0.092 1.274-0.614l6.993-19.979c0.010-0.027 0.019-0.054 0.027-0.082zM10.779 11.807l-6.068-2.696 13.483-4.72zM19.609 5.806l-4.72 13.483-2.696-6.068z"></path>
</symbol>
<symbol id="icon-smile" viewBox="0 0 24 24">
<path d="M23 12c0-3.037-1.232-5.789-3.222-7.778s-4.741-3.222-7.778-3.222-5.789 1.232-7.778 3.222-3.222 4.741-3.222 7.778 1.232 5.789 3.222 7.778 4.741 3.222 7.778 3.222 5.789-1.232 7.778-3.222 3.222-4.741 3.222-7.778zM21 12c0 2.486-1.006 4.734-2.636 6.364s-3.878 2.636-6.364 2.636-4.734-1.006-6.364-2.636-2.636-3.878-2.636-6.364 1.006-4.734 2.636-6.364 3.878-2.636 6.364-2.636 4.734 1.006 6.364 2.636 2.636 3.878 2.636 6.364zM7.2 14.6c0 0 0.131 0.173 0.331 0.383 0.145 0.153 0.338 0.341 0.577 0.54 0.337 0.281 0.772 0.59 1.297 0.853 0.705 0.352 1.579 0.624 2.595 0.624s1.89-0.272 2.595-0.624c0.525-0.263 0.96-0.572 1.297-0.853 0.239-0.199 0.432-0.387 0.577-0.54 0.2-0.21 0.331-0.383 0.331-0.383 0.331-0.442 0.242-1.069-0.2-1.4s-1.069-0.242-1.4 0.2c-0.041 0.050-0.181 0.206-0.181 0.206-0.1 0.105-0.237 0.239-0.408 0.382-0.243 0.203-0.549 0.419-0.91 0.6-0.48 0.239-1.050 0.412-1.701 0.412s-1.221-0.173-1.701-0.413c-0.36-0.18-0.667-0.397-0.91-0.6-0.171-0.143-0.308-0.277-0.408-0.382-0.14-0.155-0.181-0.205-0.181-0.205-0.331-0.442-0.958-0.531-1.4-0.2s-0.531 0.958-0.2 1.4zM9 10c0.552 0 1-0.448 1-1s-0.448-1-1-1-1 0.448-1 1 0.448 1 1 1zM15 10c0.552 0 1-0.448 1-1s-0.448-1-1-1-1 0.448-1 1 0.448 1 1 1z"></path>
</symbol>
<symbol id="icon-user" viewBox="0 0 24 24">
<path d="M21 21v-2c0-1.38-0.561-2.632-1.464-3.536s-2.156-1.464-3.536-1.464h-8c-1.38 0-2.632 0.561-3.536 1.464s-1.464 2.156-1.464 3.536v2c0 0.552 0.448 1 1 1s1-0.448 1-1v-2c0-0.829 0.335-1.577 0.879-2.121s1.292-0.879 2.121-0.879h8c0.829 0 1.577 0.335 2.121 0.879s0.879 1.292 0.879 2.121v2c0 0.552 0.448 1 1 1s1-0.448 1-1zM17 7c0-1.38-0.561-2.632-1.464-3.536s-2.156-1.464-3.536-1.464-2.632 0.561-3.536 1.464-1.464 2.156-1.464 3.536 0.561 2.632 1.464 3.536 2.156 1.464 3.536 1.464 2.632-0.561 3.536-1.464 1.464-2.156 1.464-3.536zM15 7c0 0.829-0.335 1.577-0.879 2.121s-1.292 0.879-2.121 0.879-1.577-0.335-2.121-0.879-0.879-1.292-0.879-2.121 0.335-1.577 0.879-2.121 1.292-0.879 2.121-0.879 1.577 0.335 2.121 0.879 0.879 1.292 0.879 2.121z"></path>
</symbol>
<symbol id="icon-upload-cloud" viewBox="0 0 24 24">
<path d="M11 14.414v6.586c0 0.552 0.448 1 1 1s1-0.448 1-1v-6.586l2.293 2.293c0.391 0.391 1.024 0.391 1.414 0s0.391-1.024 0-1.414l-4-4c-0.092-0.092-0.202-0.166-0.324-0.217s-0.253-0.076-0.383-0.076c-0.256 0-0.512 0.098-0.707 0.293l-4 4c-0.391 0.391-0.391 1.024 0 1.414s1.024 0.391 1.414 0zM20.869 19.268c1.454-0.793 2.451-2.102 2.884-3.574s0.305-3.112-0.488-4.566c-0.679-1.245-1.737-2.155-2.959-2.663-0.724-0.301-1.505-0.46-2.299-0.465h-0.527c-0.725-2.057-2.144-3.708-3.917-4.752-1.983-1.168-4.415-1.581-6.821-0.959s-4.333 2.162-5.502 4.145-1.581 4.415-0.959 6.821c0.372 1.437 1.073 2.709 1.975 3.713 0.369 0.411 1.002 0.444 1.412 0.075s0.444-1.002 0.075-1.412c-0.688-0.765-1.235-1.75-1.526-2.877-0.484-1.872-0.164-3.761 0.746-5.305s2.407-2.74 4.279-3.224 3.761-0.164 5.305 0.746 2.74 2.407 3.224 4.279c0.116 0.435 0.506 0.75 0.969 0.75h1.253c0.536 0.004 1.061 0.111 1.545 0.312 0.815 0.339 1.517 0.943 1.97 1.773 0.529 0.97 0.615 2.061 0.325 3.044s-0.953 1.854-1.923 2.382c-0.485 0.264-0.664 0.872-0.399 1.357s0.872 0.664 1.357 0.399z"></path>
</symbol>
<symbol id="icon-users" viewBox="0 0 24 24">
<path d="M18 21v-2c0-1.38-0.561-2.632-1.464-3.536s-2.156-1.464-3.536-1.464h-8c-1.38 0-2.632 0.561-3.536 1.464s-1.464 2.156-1.464 3.536v2c0 0.552 0.448 1 1 1s1-0.448 1-1v-2c0-0.829 0.335-1.577 0.879-2.121s1.292-0.879 2.121-0.879h8c0.829 0 1.577 0.335 2.121 0.879s0.879 1.292 0.879 2.121v2c0 0.552 0.448 1 1 1s1-0.448 1-1zM14 7c0-1.38-0.561-2.632-1.464-3.536s-2.156-1.464-3.536-1.464-2.632 0.561-3.536 1.464-1.464 2.156-1.464 3.536 0.561 2.632 1.464 3.536 2.156 1.464 3.536 1.464 2.632-0.561 3.536-1.464 1.464-2.156 1.464-3.536zM12 7c0 0.829-0.335 1.577-0.879 2.121s-1.292 0.879-2.121 0.879-1.577-0.335-2.121-0.879-0.879-1.292-0.879-2.121 0.335-1.577 0.879-2.121 1.292-0.879 2.121-0.879 1.577 0.335 2.121 0.879 0.879 1.292 0.879 2.121zM24 21v-2c-0.001-1.245-0.457-2.385-1.215-3.261-0.652-0.753-1.528-1.311-2.529-1.576-0.534-0.141-1.081 0.177-1.222 0.711s0.177 1.081 0.711 1.222c0.607 0.161 1.136 0.498 1.528 0.952 0.454 0.526 0.726 1.206 0.727 1.952v2c0 0.552 0.448 1 1 1s1-0.448 1-1zM15.752 4.099c0.803 0.206 1.445 0.715 1.837 1.377s0.531 1.47 0.325 2.273c-0.176 0.688-0.575 1.256-1.105 1.652-0.314 0.235-0.675 0.409-1.063 0.511-0.534 0.14-0.854 0.687-0.713 1.221s0.687 0.854 1.221 0.713c0.637-0.167 1.232-0.455 1.752-0.844 0.884-0.66 1.552-1.613 1.845-2.758 0.342-1.337 0.11-2.689-0.542-3.788s-1.725-1.953-3.062-2.296c-0.535-0.137-1.080 0.186-1.217 0.721s0.186 1.080 0.721 1.217z"></path>
</symbol>
<symbol id="icon-products" viewBox="0 0 24 24">
  <path d="M7 24h-5v-9h5v1.735c.638-.198 1.322-.495 1.765-.689.642-.28 1.259-.417 1.887-.417 1.214 0 2.205.499 4.303 1.205.64.214 1.076.716 1.175 1.306 1.124-.863 2.92-2.257 2.937-2.27.357-.284.773-.434 1.2-.434.952 0 1.751.763 1.751 1.708 0 .49-.219.977-.627 1.356-1.378 1.28-2.445 2.233-3.387 3.074-.56.501-1.066.952-1.548 1.393-.749.687-1.518 1.006-2.421 1.006-.405 0-.832-.065-1.308-.2-2.773-.783-4.484-1.036-5.727-1.105v1.332zm-1-8h-3v7h3v-7zm1 5.664c2.092.118 4.405.696 5.999 1.147.817.231 1.761.354 2.782-.581 1.279-1.172 2.722-2.413 4.929-4.463.824-.765-.178-1.783-1.022-1.113 0 0-2.961 2.299-3.689 2.843-.379.285-.695.519-1.148.519-.107 0-.223-.013-.349-.042-.655-.151-1.883-.425-2.755-.701-.575-.183-.371-.993.268-.858.447.093 1.594.35 2.201.52 1.017.281 1.276-.867.422-1.152-.562-.19-.537-.198-1.889-.665-1.301-.451-2.214-.753-3.585-.156-.639.278-1.432.616-2.164.814v3.888zm3.79-19.913l3.21-1.751 7 3.86v7.677l-7 3.735-7-3.735v-7.719l3.784-2.064.002-.005.004.002zm2.71 6.015l-5.5-2.864v6.035l5.5 2.935v-6.106zm1 .001v6.105l5.5-2.935v-6l-5.5 2.83zm1.77-2.035l-5.47-2.848-2.202 1.202 5.404 2.813 2.268-1.167zm-4.412-3.425l5.501 2.864 2.042-1.051-5.404-2.979-2.139 1.166z"></path>
</symbol>
<symbol id="icon-products-added" viewBox="0 0 24 24">
  <path d="M7 16.462l1.526-.723c1.792-.81 2.851-.344 4.349.232 1.716.661 2.365.883 3.077 1.164 1.278.506.688 2.177-.592 1.838-.778-.206-2.812-.795-3.38-.931-.64-.154-.93.602-.323.818 1.106.393 2.663.79 3.494 1.007.831.218 1.295-.145 1.881-.611.906-.72 2.968-2.909 2.968-2.909.842-.799 1.991-.135 1.991.72 0 .23-.083.474-.276.707-2.328 2.793-3.06 3.642-4.568 5.226-.623.655-1.342.974-2.204.974-.442 0-.922-.084-1.443-.25-1.825-.581-4.172-1.313-6.5-1.6v-5.662zm-1 6.538h-4v-8h4v8zm15-11.497l-6.5 3.468v-7.215l6.5-3.345v7.092zm-7.5-3.771v7.216l-6.458-3.445v-7.133l6.458 3.362zm-3.408-5.589l6.526 3.398-2.596 1.336-6.451-3.359 2.521-1.375zm10.381 1.415l-2.766 1.423-6.558-3.415 2.872-1.566 6.452 3.558z"></path>
</symbol>
</defs>
</svg>
